<svg width="45" height="8" xmlns="http://www.w3.org/2000/svg" xmlns:xlink="http://www.w3.org/1999/xlink"><defs><path id="a" d="M.045.065h8.679v7.704H.045z"/><path id="c" d="M.023.069h8.239v7.7H.023z"/></defs><g fill="none" fill-rule="evenodd"><g transform="translate(17.372)"><mask id="b" fill="#fff"><use xlink:href="#a"/></mask><path d="M4.458 3.472c1.162-.001 1.395-.205 1.453-1.229.016-.296-.109-.41-.397-.41-.417 0-.834.005-1.25-.007-.238-.007-.368.095-.42.307-.083.33-.158.663-.25.992-.078.277.038.366.313.349.183-.012.367-.002.551-.002zM.074 7.769c-.007-.145-.05-.3-.015-.435.59-2.292 1.193-4.58 1.784-6.873.069-.267.18-.399.492-.396C4.004.078 5.672.073 7.34.08c.17 0 .342.025.51.058.583.116.947.484.86 1.043-.106.69-.288 1.379-.53 2.037-.223.604-.775.91-1.462 1.043.078.053.113.095.156.103.739.15.848.725.73 1.28-.122.575-.21 1.157-.332 1.732-.03.139-.135.263-.205.393H4.858c-.029-.114-.095-.234-.08-.343.08-.604.186-1.205.268-1.809.04-.292-.087-.474-.426-.475a36.108 36.108 0 0 1-1.174-.022c-.264-.01-.394.098-.453.35a44.183 44.183 0 0 1-.49 1.875c-.042.15-.146.283-.221.424H.074z" fill="#363636" mask="url(#b)"/></g><path d="M27.448 7.766c-1.042-.387-1.288-.685-1.236-1.79.076-1.638.485-3.206 1.302-4.657C28.01.436 28.784-.016 29.849 0c1.043.016 2.086 0 3.128.01.231.001.466.03.692.076.435.088.768.347.803.768.043.52-.01 1.051-.062 1.573-.008.085-.229.209-.356.214-.563.024-1.128.008-1.692.012-.24.001-.316-.093-.297-.327.036-.418-.055-.52-.474-.535a10.897 10.897 0 0 0-1.396.02c-.17.016-.409.157-.473.3-.504 1.118-.783 2.294-.893 3.507-.025.28.112.384.385.381.368-.003.736.005 1.104.005.776-.002.999-.191 1.132-.999-.429 0-.852-.013-1.273.005-.317.013-.431-.084-.34-.39.083-.282.145-.57.21-.858.053-.238.18-.364.454-.362 1.116.008 2.232.006 3.348.001.277-.001.383.088.3.364-.172.575-.302 1.163-.495 1.732-.377 1.113-1.012 2.003-2.305 2.269h-3.901z" fill="#363636"/><g transform="translate(9.349)"><mask id="d" fill="#fff"><use xlink:href="#c"/></mask><path d="M3.609 5.95v-.003c.232 0 .465-.006.697.001.266.01.47-.092.538-.336.308-1.12.607-2.241.894-3.365.068-.265-.09-.394-.366-.396-.428-.001-.857.004-1.285-.007-.37-.009-.602.15-.705.488-.175.573-.361 1.143-.516 1.722-.127.476-.22.96-.318 1.443-.061.3.04.479.4.455.22-.014.44-.002.66-.002zM1.472 7.77c-.07-.02-.14-.044-.211-.055C.385 7.578-.016 7.2.026 6.34c.04-.816.146-1.645.366-2.43.243-.866.589-1.718 1-2.524C1.847.496 2.648.045 3.72.07 4.738.093 5.757.067 6.775.08c.97.013 1.4.393 1.471 1.308.095 1.234-.26 2.4-.643 3.555-.253.764-.57 1.5-1.154 2.103a2.12 2.12 0 0 1-1.38.661c-.096.009-.19.041-.284.062H1.472z" fill="#363636" mask="url(#d)"/></g><path d="M34.635 7.772c-.011-.145-.06-.299-.027-.434.548-2.285 1.114-4.566 1.656-6.852.086-.366.25-.49.645-.486 2.277.018 4.555.008 6.832.012.154 0 .309.04.463.062v.141c-.894 1.062-2.024 1.638-3.477 1.572-.514-.023-1.03-.003-1.545-.003-.785 0-.785 0-.947.734-.1.451-.091.462.381.462l2.943.001c.42 0 .443.029.355.43-.063.288-.152.57-.197.86-.047.294-.209.388-.503.385-.87-.01-1.741-.007-2.612-.003-.984.006-.822-.12-1.06.811-.122.475-.106.494.412.495h3.237c.537 0 .544.01.423.521-.07.298-.133.598-.221.89-.043.142-.136.269-.207.402h-6.551zM0 7.492c.09-.649.52-.916 1.155-1.037.495-.095.779-.471.909-.93.292-1.03.577-2.063.855-3.098.129-.482.005-.752-.479-.924a7.4 7.4 0 0 0-1.206-.29C.984 1.168.923 1.065.989.851c.282-.913.126-.773.998-.775 2.611-.004 5.223 0 7.834 0h.498c-.042.14-.05.253-.106.34-.26.412-.517.828-.812 1.216-.088.115-.296.202-.452.205-.98.018-1.961.025-2.941.001-.382-.009-.567.127-.632.473-.041.22-.113.433-.17.649-.105.388-.08.42.35.423.6.003 1.202.01 1.802-.003.314-.006.43.081.324.394-.104.3-.18.61-.25.919-.055.236-.187.33-.44.325-.637-.01-1.274.008-1.911-.008-.303-.008-.447.113-.516.383-.167.65-.341 1.297-.526 1.942-.044.154-.14.294-.211.44H0v-.283z" fill="#363636"/></g></svg>