<svg width="400" height="74" fill="none" xmlns="http://www.w3.org/2000/svg"><path fill="#c4b5fd" d="M335.924 23.308h-25.862l24.991 24.901-24.991 24.9h25.862l24.991-24.9-24.991-24.9Z"/><path fill="#c4b5fd" d="M375.009 23.308h-25.863l24.991 24.901-24.991 24.9h25.863L400 48.21l-24.991-24.9ZM8.718 22.15h14.965l-8.717 49.51H0l8.718-49.51ZM9.59 8.976C10.46 4.198 14.966 0 19.906 0s8.281 4.054 7.555 8.976C26.735 13.898 22.085 17.95 17 17.95c-5.086 0-8.137-4.343-7.41-8.975ZM78.896 41.26l-5.376 30.4H58.7l4.94-28.23c1.162-6.37-2.325-8.976-7.12-8.976-4.94 0-9.444 2.896-10.897 9.555l-4.94 27.651h-14.82l8.717-49.51h14.966l-.727 4.633c3.342-3.765 9.009-6.08 14.675-6.08 10.026.144 17.726 7.382 15.402 20.557Zm58.409 5.646c-.146 1.158-.727 3.908-1.599 5.935h-35.597c.872 5.501 5.521 6.95 10.171 6.95 4.213 0 7.555-1.16 10.461-3.91l10.461 8.542c-5.812 5.79-12.641 8.686-21.794 8.686-17.145 0-26.153-12.305-23.683-27.072a29.941 29.941 0 0 1 10.229-18.07 30.141 30.141 0 0 1 19.556-7.12c14.239 0 24.555 11.002 21.795 26.059Zm-14.094-5.357c-.436-5.501-4.359-7.673-9.008-7.673a12.966 12.966 0 0 0-7.192 2.023 12.893 12.893 0 0 0-4.868 5.65h21.068Zm56.811-20.413-2.906 16.794c-5.812-.869-15.256 1.158-17 11.292l.145-.58-4.068 23.02h-14.82l8.718-49.512h14.965l-1.598 8.976c3.051-6.805 9.589-9.99 16.564-9.99ZM200.218 54c-.727 4.488 2.906 4.778 9.589 4.199l-2.324 13.463c-17.872 2.027-24.555-3.909-22.085-17.662l3.051-17.517h-7.991l2.615-14.332h7.846l1.743-9.41 15.692-4.488-2.47 13.898H216.2l-2.615 14.332h-10.171L200.218 54Zm25.427-31.85h14.965l-8.718 49.512h-14.965l8.718-49.511Zm.871-13.173C227.243 4.198 231.892 0 236.832 0s8.282 4.054 7.556 8.976c-.727 4.922-5.376 8.975-10.462 8.975-5.085 0-8.281-4.343-7.41-8.975Zm75.845 13.174-8.718 49.511h-14.965l.581-3.33a22.576 22.576 0 0 1-14.966 4.778c-16.128 0-22.23-13.898-19.615-27.362 2.325-12.74 12.496-24.9 27.897-24.9 6.539 0 11.188 2.606 13.949 6.66l.871-5.212h14.966v-.145Zm-19.179 24.9c1.307-7.528-2.761-12.16-9.59-12.16a13.832 13.832 0 0 0-9.192 3.395 13.74 13.74 0 0 0-4.611 8.62c-1.308 7.384 2.615 12.017 9.59 12.017 6.683.144 12.495-4.488 13.803-11.872Z"/></svg>