<svg width="50" height="50" xmlns="http://www.w3.org/2000/svg"><g fill="none"><path d="M37.768 19.351c.008-.182.012-.367.012-.551 0-7.07-5.73-12.8-12.8-12.8s-12.8 5.73-12.8 12.8c0 .185.004.37.012.553 4.293-1.875 9.18-1.21 12.79 1.493 3.609-2.702 8.494-3.368 12.786-1.495z" fill="#6DA5E5" style="mix-blend-mode:multiply"/><path d="M19.871 30.54a12.775 12.775 0 0 0 5.109 1.06c1.818 0 3.547-.379 5.113-1.062a12.752 12.752 0 0 0-1.705-5.848 12.788 12.788 0 0 0-3.406-3.844 12.76 12.76 0 0 0-3.405 3.844 12.745 12.745 0 0 0-1.706 5.85z" fill="#294BA5" style="mix-blend-mode:multiply"/><path d="M30.093 30.538c4.365-1.905 7.463-6.172 7.675-11.187-4.292-1.873-9.177-1.207-12.786 1.495a12.76 12.76 0 0 1 3.405 3.844 12.737 12.737 0 0 1 1.706 5.848z" fill="#2B9BDA" style="mix-blend-mode:multiply"/><path d="M19.871 30.54c-4.367-1.903-7.466-6.171-7.68-11.187 4.294-1.875 9.181-1.21 12.791 1.493a12.76 12.76 0 0 0-3.405 3.844 12.745 12.745 0 0 0-1.706 5.85z" fill="#6750AE" style="mix-blend-mode:multiply"/><path d="M30.093 30.538c.174 4.127-1.66 8.213-5.111 10.793a12.805 12.805 0 0 1-5.11-10.791 12.766 12.766 0 0 0 5.108 1.06c1.818 0 3.547-.379 5.113-1.062z" fill="#6074B8" style="mix-blend-mode:multiply"/><path d="M24.982 41.332c.404.302.831.584 1.28.843 6.122 3.535 13.95 1.437 17.485-4.684 3.535-6.123 1.437-13.951-4.685-17.485a12.667 12.667 0 0 0-1.294-.655c-.212 5.015-3.31 9.283-7.675 11.188.174 4.126-1.66 8.212-5.111 10.793z" fill="#66F1F3" style="mix-blend-mode:multiply"/><path d="M24.982 41.332c-.405.302-.832.584-1.28.843-6.122 3.535-13.95 1.437-17.485-4.684-3.535-6.123-1.437-13.951 4.685-17.485a12.69 12.69 0 0 1 1.29-.653c.213 5.016 3.313 9.285 7.68 11.188a12.807 12.807 0 0 0 5.11 10.791z" fill="#F27CC2" style="mix-blend-mode:multiply"/></g></svg>