<svg width="50" height="50" xmlns="http://www.w3.org/2000/svg"><defs><linearGradient x1="1.409%" y1="113.409%" x2="75.624%" y2="32.955%" id="a"><stop stop-color="#765AF8" offset="1.613%"/><stop stop-color="#B345F1" offset="38.21%"/><stop stop-color="#FA3293" offset="75.81%"/><stop stop-color="#FF318C" offset="94.09%"/></linearGradient><linearGradient x1="30.375%" y1="86.98%" x2="81.468%" y2="-9.674%" id="b"><stop stop-color="#765AF8" offset="1.613%"/><stop stop-color="#B345F1" offset="38.21%"/><stop stop-color="#FA3293" offset="75.81%"/><stop stop-color="#FF318C" offset="94.09%"/></linearGradient><linearGradient x1="60.035%" y1="88.807%" x2="25.415%" y2="15.219%" id="c"><stop stop-color="#765AF8" offset="18.28%"/><stop stop-color="#8655F6" offset="23.82%"/><stop stop-color="#9F4CF3" offset="34.49%"/><stop stop-color="#AE47F2" offset="44.25%"/><stop stop-color="#B345F1" offset="52.19%"/></linearGradient><linearGradient x1="76.602%" y1="80.758%" x2="27.431%" y2="35.434%" id="d"><stop stop-color="#765AF8" offset="1.613%"/><stop stop-color="#B345F1" offset="38.21%"/></linearGradient></defs><g fill="none"><path fill="url(#a)" d="m24.948 9.576-2.079-6.3L7.497 0 0 8.505l23.436 11.97z" transform="translate(2.5 2.5)"/><path fill="url(#b)" d="m17.64 26.082-.441-13.104L0 8.505l4.221 25.263 13.419-.126z" transform="translate(2.5 2.5)"/><path fill="url(#c)" d="m13.923 25.83.819-10.395L27.216 2.646l11.151 2.016L44.1 18.963l-5.985 5.922-9.765-1.575-6.048 6.363z" transform="translate(2.5 2.5)"/><path fill="url(#d)" d="M27.216 2.646 9.324 18.522l3.465 20.412L27.657 44.1 44.1 34.272z" transform="translate(2.5 2.5)"/><path fill="#000" d="M10.942 10.942h27.216v27.216H10.942z"/><path fill="#FFF" d="M13.525 33.055h10.206v1.701H13.525zm-.126-18.585h4.599c2.709 0 4.347 1.575 4.347 3.906v.063c0 2.646-2.016 3.969-4.599 3.969h-1.89v3.402h-2.457V14.47zm4.473 5.67c1.26 0 1.953-.756 1.953-1.701v-.063c0-1.134-.756-1.701-2.016-1.701h-1.89v3.465h1.953zm5.103 4.032 1.449-1.764c1.008.819 2.079 1.386 3.402 1.386 1.008 0 1.638-.378 1.638-1.071v-.063c0-.63-.378-.945-2.268-1.449-2.268-.567-3.78-1.197-3.78-3.465v-.063c0-2.079 1.638-3.402 3.969-3.402 1.638 0 3.087.504 4.221 1.449l-1.323 1.89c-1.008-.693-2.016-1.134-2.961-1.134-.945 0-1.449.441-1.449 1.008v.063c0 .756.504 1.008 2.457 1.512 2.268.63 3.591 1.449 3.591 3.402v.063c0 2.268-1.701 3.528-4.158 3.528a7.763 7.763 0 0 1-4.788-1.89"/></g></svg>