<svg width="50" height="50" xmlns="http://www.w3.org/2000/svg"><g fill="none"><path d="M43.094 34.428c-2.143 1.117-13.248 5.683-15.612 6.916-2.364 1.232-3.677 1.22-5.545.328-1.868-.893-13.685-5.667-15.814-6.684C5.06 34.479 4.5 34.05 4.5 33.645v-4.06s15.385-3.35 17.868-4.24c2.484-.892 3.346-.924 5.46-.15 2.113.775 14.751 3.055 16.84 3.82v4.003c0 .401-.483.841-1.574 1.41" fill="#912626"/><path d="M43.094 30.392c-2.144 1.117-13.248 5.683-15.612 6.915-2.364 1.233-3.678 1.22-5.545.328-1.868-.892-13.685-5.666-15.813-6.683-2.129-1.018-2.173-1.718-.082-2.537 2.09-.819 13.843-5.43 16.327-6.32 2.483-.891 3.345-.924 5.458-.15 2.114.775 13.152 5.168 15.24 5.933 2.09.766 2.17 1.397.027 2.514" fill="#C6302B"/><path d="M43.094 27.858c-2.143 1.118-13.248 5.684-15.612 6.917-2.364 1.232-3.677 1.22-5.545.327-1.868-.892-13.685-5.666-15.814-6.684C5.06 27.91 4.5 27.481 4.5 27.076v-4.061s15.385-3.349 17.868-4.24c2.484-.891 3.346-.923 5.46-.15 2.113.775 14.751 3.055 16.84 3.82v4.003c0 .401-.483.842-1.574 1.41" fill="#912626"/><path d="M43.094 23.822c-2.144 1.117-13.248 5.683-15.612 6.916-2.364 1.232-3.678 1.22-5.545.327-1.868-.892-13.685-5.666-15.813-6.683-2.129-1.017-2.173-1.718-.082-2.537 2.09-.818 13.843-5.43 16.327-6.32 2.483-.891 3.345-.923 5.458-.149 2.114.774 13.152 5.167 15.24 5.933 2.09.765 2.17 1.396.027 2.513" fill="#C6302B"/><path d="M43.094 21.045c-2.143 1.118-13.248 5.684-15.612 6.916-2.364 1.233-3.677 1.22-5.545.328-1.868-.892-13.685-5.666-15.814-6.683-1.063-.51-1.623-.938-1.623-1.343v-4.061s15.385-3.349 17.868-4.24c2.484-.891 3.346-.923 5.46-.149 2.113.774 14.751 3.054 16.84 3.82v4.002c0 .401-.483.842-1.574 1.41" fill="#912626"/><path d="M43.094 17.01c-2.144 1.116-13.248 5.682-15.612 6.915-2.364 1.232-3.678 1.22-5.545.328-1.868-.893-13.685-5.667-15.813-6.684-2.129-1.017-2.173-1.718-.082-2.537 2.09-.818 13.843-5.429 16.327-6.32 2.483-.891 3.345-.923 5.458-.149 2.114.775 13.152 5.168 15.24 5.933 2.09.765 2.17 1.396.027 2.513" fill="#C6302B"/><path d="m29.493 13.06-3.454.358-.773 1.86-1.249-2.076-3.987-.358 2.975-1.073-.893-1.647 2.786 1.09 2.626-.86-.71 1.703 2.679 1.002m-4.433 9.025-6.445-2.673 9.235-1.417-2.79 4.09m-8.936-7.99c2.726 0 4.936.856 4.936 1.913s-2.21 1.913-4.936 1.913-4.936-.856-4.936-1.913 2.21-1.914 4.936-1.914" fill="#FFF"/><path fill="#621B1C" d="m33.574 13.568 5.466 2.16-5.461 2.158-.005-4.318"/><path fill="#9A2928" d="m27.527 15.96 6.047-2.392.005 4.318-.593.232-5.46-2.158"/></g></svg>