<svg width="50" height="50" xmlns="http://www.w3.org/2000/svg"><defs><linearGradient x1="100%" y1="100%" x2="0%" y2="0%" id="a"><stop stop-color="#172525" offset="0%"/><stop stop-color="#536161" offset="100%"/></linearGradient><linearGradient x1="28.222%" y1="23.333%" x2="71.778%" y2="70%" id="b"><stop stop-color="#292C2F" offset="0%"/><stop stop-opacity="0" offset="100%"/></linearGradient><linearGradient x1="68.75%" y1="44.097%" x2="58.92%" y2="64.985%" id="c"><stop stop-color="#B1621E" offset="0%"/><stop stop-color="#FFA21D" offset="100%"/></linearGradient><linearGradient x1="1505.179%" y1="-357.444%" x2="772.436%" y2="-669.414%" id="d"><stop stop-color="#CD7223" offset="0%"/><stop stop-color="#F48E00" offset="53%"/><stop stop-color="#FFA92D" offset="100%"/></linearGradient></defs><g fill="none"><path fill="url(#a)" d="M0 0h45v45H0z" transform="translate(2.5 2.5)"/><path fill="url(#b)" opacity=".4" d="m13.5 34.875 9 9H45v-20.25l-13.5-13.5v6.75L23.625 19.5l7.875 2.625v6.75z" transform="translate(2.5 2.5)"/><path fill="url(#c)" d="m13.5 28.125 18-6v6.75l-18 6z" transform="translate(2.5 2.5)"/><path d="M2.5 4.75V3.625c0-.623.502-1.125 1.125-1.125h42.75c.623 0 1.125.502 1.125 1.125V4.75c0-.623-.502-1.125-1.125-1.125H3.625c-.623 0-1.125.502-1.125 1.125z" fill="#FFF" opacity=".184"/><path d="M2.5 45.25v1.125c0 .623.502 1.125 1.125 1.125h42.75c.623 0 1.125-.502 1.125-1.125V45.25c0 .623-.502 1.125-1.125 1.125H3.625A1.123 1.123 0 0 1 2.5 45.25z" fill="#000" opacity=".481"/><path fill="url(#d)" d="m31.5 10.125-18 6v6.75l18 6v-6.75L23.625 19.5l7.875-2.626z" transform="translate(2.5 2.5)"/></g></svg>