<svg width="50" height="50" xmlns="http://www.w3.org/2000/svg"><g fill="none"><circle fill="#000" cx="25.138" cy="24.623" r="24.625"/><path d="M35.904 9.11c-2.501.087-4.686 1.466-6.31 3.373-1.801 2.092-2.998 4.573-3.86 7.105-1.544-1.265-2.734-2.902-5.21-3.616-1.914-.55-3.923-.324-5.771 1.053-.877.655-1.48 1.643-1.766 2.572-.744 2.416.78 4.566 1.473 5.339l1.513 1.62c.312.318 1.062 1.148.696 2.336-.397 1.294-1.955 2.13-3.554 1.638-.714-.221-1.74-.752-1.51-1.5.095-.306.314-.537.433-.8.108-.227.158-.398.19-.498.293-.954-.106-2.194-1.127-2.51-.954-.29-1.927-.059-2.305 1.167-.43 1.395.237 3.922 3.81 5.025 4.186 1.287 7.727-.994 8.23-3.966.316-1.861-.526-3.245-2.066-5.025l-1.254-1.387c-.76-.76-1.021-2.054-.235-3.048.664-.84 1.608-1.198 3.158-.777 2.261.612 3.269 2.181 4.95 3.447-.694 2.276-1.149 4.561-1.558 6.612l-.252 1.526c-1.203 6.304-2.12 9.765-4.504 11.751-.48.343-1.167.854-2.201.89-.543.017-.718-.356-.727-.52-.012-.38.31-.555.523-.726.319-.174.8-.462.768-1.384-.036-1.093-.94-2.039-2.245-1.994-.98.033-2.47.953-2.414 2.64.058 1.74 1.68 3.047 4.128 2.963 1.309-.043 4.23-.576 7.108-3.998 3.35-3.923 4.288-8.42 4.993-11.712l.786-4.345c.438.052.904.088 1.413.1 4.173.089 6.26-2.073 6.292-3.645.02-.952-.624-1.888-1.528-1.867-.646.019-1.458.448-1.653 1.341-.19.878 1.328 1.669.142 2.438-.843.547-2.355.93-4.483.618l.388-2.139c.789-4.056 1.764-9.046 5.46-9.166.269-.014 1.255.013 1.278.663.006.218-.048.274-.302.772-.26.388-.358.719-.347 1.1.037 1.035.824 1.715 1.964 1.675 1.523-.05 1.962-1.533 1.937-2.297-.063-1.793-1.952-2.925-4.451-2.844z" fill="#FFF"/></g></svg>